<?xml version="1.0" encoding="utf-8"?>
<!-- Generator: Adobe Illustrator 16.0.0, SVG Export Plug-In . SVG Version: 6.00 Build 0)  -->
<svg version="1.2" baseProfile="tiny" id="Layer_1" xmlns="http://www.w3.org/2000/svg" xmlns:xlink="http://www.w3.org/1999/xlink"
	 x="0px" y="0px" width="94.46px" height="87.048px" viewBox="0 0 94.46 87.048" xml:space="preserve">
<g>
	<g>
		<polygon fill="#FF9F1C" points="69.98,21.665 74.313,21.665 78.647,21.665 78.647,12.999 69.98,12.999 		"/>
		<polygon fill="#FFBF69" points="61.313,12.999 52.647,12.999 52.647,21.665 56.98,21.665 61.313,21.665 		"/>
		<polygon fill="#50A08A" points="41.813,12.999 33.147,12.999 33.147,21.665 37.48,21.665 41.813,21.665 		"/>
		<polygon fill="#CBF3F0" points="24.48,12.999 15.813,12.999 15.813,21.665 20.146,21.665 24.48,21.665 		"/>
		<polygon fill="#FF9F1C" points="69.98,36.832 74.313,36.832 78.647,36.832 78.647,28.166 74.313,28.166 69.98,28.166 		"/>
		<polygon fill="#FFBF69" points="61.313,28.166 56.98,28.166 52.647,28.166 52.647,36.832 56.98,36.832 61.313,36.832 		"/>
		<polygon fill="#FFBC1D" points="61.313,56.332 69.98,56.332 69.98,47.665 65.647,47.665 61.313,47.665 		"/>
		<g>
			<polygon fill="#E8EDED" points="47.258,67.166 47.203,67.166 47.23,67.181 			"/>
		</g>
		<g>
			<polygon fill="#29AB6A" points="24.48,56.332 28.813,56.332 33.147,56.332 33.147,47.665 28.813,47.665 24.48,47.665 			"/>
			<polygon fill="#50A08A" points="41.813,28.166 37.48,28.166 33.147,28.166 33.147,36.832 37.48,36.832 41.813,36.832 			"/>
		</g>
		<polygon fill="#CBF3F0" points="24.48,36.832 24.48,28.166 20.146,28.166 15.813,28.166 15.813,36.832 20.146,36.832 		"/>
		<path fill="#3F3F3F" d="M52.647,67.166c0-0.598-0.485-1.084-1.084-1.084H51.25l14.91-8.667h3.82c0.6,0,1.084-0.484,1.084-1.083
			v-8.667c0-0.598-0.484-1.083-1.084-1.083h-2.078l6.933-8.666h3.812c0.599,0,1.083-0.486,1.083-1.084v-8.666
			c0-0.598-0.484-1.084-1.083-1.084h-3.251v-4.333h3.251c0.599,0,1.083-0.485,1.083-1.084v-8.666c0-0.599-0.484-1.083-1.083-1.083
			H69.98c-0.599,0-1.083,0.484-1.083,1.083v8.666c0,0.599,0.484,1.084,1.083,1.084h3.25v4.333h-3.25
			c-0.599,0-1.083,0.486-1.083,1.084v8.666c0,0.598,0.484,1.084,1.083,1.084h2.079l-6.412,8.015l-6.413-8.015h2.079
			c0.6,0,1.083-0.486,1.083-1.084v-8.666c0-0.598-0.483-1.084-1.083-1.084h-3.249v-4.333h3.249c0.6,0,1.083-0.485,1.083-1.084
			v-8.666c0-0.599-0.483-1.083-1.083-1.083h-8.666c-0.6,0-1.084,0.484-1.084,1.083v8.666c0,0.599,0.484,1.084,1.084,1.084h3.25
			v4.333h-3.25c-0.6,0-1.084,0.486-1.084,1.084v8.666c0,0.598,0.484,1.084,1.084,1.084h3.812l6.934,8.666h-2.079
			c-0.599,0-1.083,0.485-1.083,1.083v8.667c0,0.599,0.484,1.083,1.083,1.083h0.533l-14.613,8.496l-14.441-8.496h0.355
			c0.599,0,1.083-0.484,1.083-1.083v-8.667c0-0.598-0.484-1.083-1.083-1.083h-2.08l6.935-8.666h3.812c0.6,0,1.084-0.486,1.084-1.084
			v-8.666c0-0.598-0.484-1.084-1.084-1.084h-3.25v-4.333h3.25c0.6,0,1.084-0.485,1.084-1.084v-8.666
			c0-0.599-0.484-1.083-1.084-1.083h-8.666c-0.6,0-1.083,0.484-1.083,1.083v8.666c0,0.599,0.483,1.084,1.083,1.084h3.249v4.333
			h-3.249c-0.6,0-1.083,0.486-1.083,1.084v8.666c0,0.598,0.483,1.084,1.083,1.084h2.079l-6.413,8.015l-6.412-8.015h2.079
			c0.599,0,1.083-0.486,1.083-1.084v-8.666c0-0.598-0.484-1.084-1.083-1.084h-3.25v-4.333h3.25c0.599,0,1.083-0.485,1.083-1.084
			v-8.666c0-0.599-0.484-1.083-1.083-1.083h-8.667c-0.599,0-1.083,0.484-1.083,1.083v8.666c0,0.599,0.484,1.084,1.083,1.084h3.251
			v4.333h-3.251c-0.599,0-1.083,0.486-1.083,1.084v8.666c0,0.598,0.484,1.084,1.083,1.084h3.812l6.933,8.666H24.48
			c-0.6,0-1.084,0.485-1.084,1.083v8.667c0,0.599,0.484,1.083,1.084,1.083h4.038l14.733,8.667h-0.354
			c-0.599,0-1.084,0.486-1.084,1.084l3.383,0.795L52.647,67.166z M71.064,14.082h6.499v6.5h-6.499V14.082z M71.064,29.248h6.499
			v6.501h-6.499V29.248z M53.73,14.082h6.5v6.5h-6.5V14.082z M53.73,29.248h6.5v6.501h-6.5V29.248z M62.396,48.749h6.501v6.499
			h-6.501V48.749z M32.064,55.248h-6.501v-6.499h6.501V55.248z M34.23,14.082h6.5v6.5h-6.5V14.082z M34.23,29.248h6.5v6.501h-6.5
			V29.248z M16.897,14.082h6.499v6.5h-6.499V14.082z M16.897,29.248h6.499v6.501h-6.499V29.248z"/>
	</g>
	<g>
		<g>
			
				<rect x="46.204" y="53.681" transform="matrix(-0.7071 -0.7071 0.7071 -0.7071 34.2001 145.7608)" fill="#3F3F3F" width="2.168" height="24.234"/>
		</g>
		<g>
			
				<rect x="46.205" y="53.681" transform="matrix(0.7071 -0.7071 0.7071 0.7071 -32.6751 52.71)" fill="#3F3F3F" width="2.168" height="24.234"/>
		</g>
		<g>
			<circle fill="#E8EDED" cx="47.289" cy="65.797" r="7.423"/>
			<path fill="#3F3F3F" d="M47.288,74.371c-4.727,0-8.572-3.846-8.572-8.573s3.846-8.573,8.572-8.573
				c4.728,0,8.574,3.846,8.574,8.573S52.016,74.371,47.288,74.371z M47.288,59.525c-3.458,0-6.271,2.813-6.271,6.272
				s2.813,6.272,6.271,6.272c3.459,0,6.273-2.813,6.273-6.272S50.747,59.525,47.288,59.525z"/>
		</g>
	</g>
</g>
</svg>
