<?xml version="1.0" encoding="utf-8"?>
<!-- Generator: Adobe Illustrator 16.0.0, SVG Export Plug-In . SVG Version: 6.00 Build 0)  -->
<svg version="1.2" baseProfile="tiny" id="Layer_1" xmlns="http://www.w3.org/2000/svg" xmlns:xlink="http://www.w3.org/1999/xlink"
	 x="0px" y="0px" width="94.46px" height="87.048px" viewBox="0 0 94.46 87.048" xml:space="preserve">
<g>
	<g>
		<polygon fill="#FF9F1C" points="44.692,28.358 36.025,28.358 27.358,28.358 18.692,28.358 17.608,28.358 17.608,32.691 
			19.775,32.691 19.775,39.191 29.525,47.858 29.525,57.608 33.858,55.441 33.858,47.858 43.608,39.191 43.608,32.691 
			45.775,32.691 45.775,28.358 		"/>
		<rect x="18.692" y="11.024" fill="#E8EDED" width="26" height="17.334"/>
		<g>
			<rect x="67.442" y="42.441" fill="#3F3F3F" width="2.166" height="3.25"/>
			<path fill="#3F3F3F" d="M17.608,33.774h1.084v5.417c0,0.31,0.132,0.604,0.362,0.811l9.388,8.344v9.263
				c0,0.376,0.194,0.724,0.514,0.922c0.174,0.107,0.371,0.161,0.569,0.161c0.166,0,0.331-0.038,0.484-0.113l4.333-2.167
				c0.367-0.184,0.6-0.559,0.6-0.97v-7.097L44.329,40c0.23-0.205,0.363-0.5,0.363-0.81v-5.417h1.083
				c0.598,0,1.083-0.484,1.083-1.083v-4.333c0-0.598-0.485-1.084-1.083-1.084v-3.25h-2.167v3.25h-6.5v-2.166h-2.166v2.166h-6.5
				v-4.333h-2.167v4.333h-6.5v-2.166h-2.167v2.166c-0.598,0-1.083,0.486-1.083,1.084v4.333
				C16.525,33.29,17.011,33.774,17.608,33.774z M44.692,31.608h-1.084c-0.598,0-1.083,0.485-1.083,1.083v6.014l-9.387,8.344
				c-0.231,0.205-0.363,0.499-0.363,0.81v6.914l-2.167,1.083v-7.997c0-0.311-0.132-0.604-0.362-0.811l-9.388-8.343v-6.014
				c0-0.598-0.485-1.083-1.083-1.083h-1.083v-2.167h26V31.608z"/>
			<rect x="30.608" y="22.941" fill="#3F3F3F" width="2.167" height="2.167"/>
			<rect x="30.608" y="15.358" fill="#3F3F3F" width="2.167" height="5.416"/>
			<rect x="30.608" y="11.024" fill="#3F3F3F" width="2.167" height="2.167"/>
			<rect x="34.942" y="20.774" fill="#3F3F3F" width="2.166" height="2.167"/>
			<rect x="34.942" y="11.024" fill="#3F3F3F" width="2.166" height="7.584"/>
			<rect x="17.608" y="20.774" fill="#3F3F3F" width="2.167" height="2.167"/>
			<rect x="17.608" y="11.024" fill="#3F3F3F" width="2.167" height="3.25"/>
			<rect x="39.275" y="19.691" fill="#3F3F3F" width="2.167" height="5.417"/>
			<rect x="39.275" y="15.358" fill="#3F3F3F" width="2.167" height="2.166"/>
			<rect x="39.275" y="11.024" fill="#3F3F3F" width="2.167" height="2.167"/>
			<rect x="21.942" y="11.024" fill="#3F3F3F" width="2.166" height="3.25"/>
			<rect x="21.942" y="16.441" fill="#3F3F3F" width="2.166" height="2.167"/>
			<rect x="21.942" y="20.774" fill="#3F3F3F" width="2.166" height="4.334"/>
			<rect x="26.275" y="11.024" fill="#3F3F3F" width="2.167" height="5.417"/>
			<rect x="26.275" y="18.608" fill="#3F3F3F" width="2.167" height="2.166"/>
			<rect x="17.608" y="16.441" fill="#3F3F3F" width="2.167" height="2.167"/>
			<rect x="43.608" y="11.024" fill="#3F3F3F" width="2.167" height="10.834"/>
			<path fill="#3F3F3F" d="M27.381,42.229l2.124,0.426l0.476-2.381h2.124l-0.391,1.955l2.124,0.426l0.476-2.381h1.712v-2.166h-1.278
				l0.434-2.167h1.928v-2.167h-1.495l0.392-1.954l-2.124-0.426l-0.478,2.38h-2.124l0.391-1.954l-2.124-0.426l-0.476,2.38h-1.712
				v2.167h1.278l-0.433,2.167h-1.929v2.166h1.495L27.381,42.229z M30.847,35.941h2.125l-0.434,2.167h-2.124L30.847,35.941z"/>
			<path fill="#3F3F3F" d="M69.608,31.066c0-5.675-4.617-10.292-10.291-10.292c-5.675,0-10.292,4.617-10.292,10.292v34.667
				c0,4.48-3.645,8.125-8.125,8.125s-8.125-3.645-8.125-8.125v-1.625h-2.167v1.625c0,5.674,4.617,10.291,10.292,10.291
				s10.292-4.617,10.292-10.291V31.066c0-4.48,3.645-8.125,8.125-8.125s8.125,3.645,8.125,8.125v0.542h2.166V31.066z"/>
			<rect x="30.608" y="59.774" fill="#3F3F3F" width="2.167" height="2.167"/>
			<rect x="67.442" y="33.774" fill="#3F3F3F" width="2.166" height="2.167"/>
			<rect x="67.442" y="38.108" fill="#3F3F3F" width="2.166" height="2.166"/>
		</g>
	</g>
	<g>
		<g>
			
				<rect x="67.514" y="41.799" transform="matrix(-0.7071 -0.7071 0.7071 -0.7071 78.9812 140.5461)" fill="#3F3F3F" width="2.168" height="24.234"/>
		</g>
		<g>
			
				<rect x="67.515" y="41.799" transform="matrix(0.7071 -0.7071 0.7071 0.7071 -18.0317 64.2987)" fill="#3F3F3F" width="2.168" height="24.234"/>
		</g>
		<g>
			<circle fill="#CBF3F0" cx="68.6" cy="53.916" r="7.423"/>
			<path fill="#3F3F3F" d="M68.599,62.489c-4.727,0-8.572-3.846-8.572-8.573s3.846-8.573,8.572-8.573
				c4.728,0,8.574,3.846,8.574,8.573S73.326,62.489,68.599,62.489z M68.599,47.643c-3.458,0-6.271,2.813-6.271,6.272
				s2.813,6.272,6.271,6.272c3.459,0,6.273-2.813,6.273-6.272S72.058,47.643,68.599,47.643z"/>
		</g>
	</g>
</g>
</svg>
