<?xml version="1.0" encoding="utf-8"?>
<!-- Generator: Adobe Illustrator 16.0.0, SVG Export Plug-In . SVG Version: 6.00 Build 0)  -->
<svg version="1.2" baseProfile="tiny" id="Layer_1" xmlns="http://www.w3.org/2000/svg" xmlns:xlink="http://www.w3.org/1999/xlink"
	 x="0px" y="0px" width="94.46px" height="87.048px" viewBox="0 0 94.46 87.048" xml:space="preserve">
<g>
	<g>
		<circle fill="#FF9F1C" cx="47.23" cy="41.899" r="22.75"/>
		<circle fill="#50A08A" cx="47.23" cy="41.899" r="19.5"/>
		<circle fill="#60C4C2" cx="47.23" cy="41.899" r="16.25"/>
		<g>
			<circle fill="#FFFFFF" cx="59.148" cy="16.982" r="2.167"/>
			<circle fill="#FFFFFF" cx="20.148" cy="21.316" r="2.167"/>
			<circle fill="#FFFFFF" cx="20.148" cy="58.149" r="2.167"/>
			<circle fill="#FFFFFF" cx="35.314" cy="71.149" r="2.167"/>
		</g>
		<g>
			<path fill="#3F3F3F" d="M69.346,18.066l-1.85-1.849c-0.201-0.204-0.479-0.318-0.766-0.318h-4.531
				c-0.449-1.258-1.641-2.166-3.051-2.166c-1.412,0-2.604,0.908-3.051,2.166h-6.252h-3.062h-9.938l-2.932-2.932
				c-0.203-0.204-0.479-0.318-0.766-0.318h-3.25v2.167h2.801l2.932,2.933c0.203,0.203,0.48,0.317,0.768,0.317h19.699
				c0.447,1.258,1.639,2.167,3.051,2.167c1.41,0,2.602-0.909,3.051-2.167h4.084l1.848,1.85c0.203,0.203,0.48,0.317,0.768,0.317
				h6.683v-2.167H69.346z M59.148,18.066c-0.598,0-1.084-0.486-1.084-1.083c0-0.598,0.486-1.084,1.084-1.084
				c0.596,0,1.082,0.486,1.082,1.084C60.23,17.58,59.744,18.066,59.148,18.066z"/>
			<path fill="#3F3F3F" d="M70.299,23.8l-2.934,2.933h-6.268c-3.662-3.352-8.523-5.417-13.867-5.417
				c-4.07,0-7.857,1.202-11.057,3.25h-5.828L26.33,20.55c-0.203-0.204-0.479-0.317-0.766-0.317h-2.365
				c-0.449-1.258-1.641-2.167-3.051-2.167c-1.412,0-2.604,0.909-3.051,2.167H14.73v2.166h2.367c0.447,1.258,1.639,2.167,3.051,2.167
				c1.41,0,2.602-0.909,3.051-2.167h1.916l4.016,4.017c0.203,0.203,0.48,0.317,0.768,0.317h3.467
				c-2.279,2.085-4.09,4.667-5.252,7.583h-2.1l-2.934-2.933c-0.203-0.203-0.479-0.317-0.766-0.317H14.73v2.167h7.135l2.934,2.933
				c0.203,0.203,0.479,0.317,0.766,0.317h1.83c-0.381,1.392-0.613,2.84-0.691,4.333h-7.639v2.167h7.639
				c0.078,1.492,0.312,2.941,0.691,4.333h-3.996c-0.287,0-0.564,0.114-0.768,0.317l-2.932,2.933H14.73v2.167h5.418
				c0.287,0,0.562-0.114,0.766-0.317l2.932-2.933h4.268c0.785,1.972,1.855,3.798,3.176,5.416H27.73
				c-0.287,0-0.562,0.114-0.766,0.318l-1.85,1.849h-1.916c-0.449-1.258-1.641-2.167-3.051-2.167c-1.412,0-2.604,0.909-3.051,2.167
				H14.73v2.167h2.367c0.447,1.258,1.639,2.166,3.051,2.166c1.41,0,2.602-0.908,3.051-2.166h2.365c0.287,0,0.562-0.114,0.766-0.317
				l1.85-1.85h5.186c3.662,3.352,8.521,5.417,13.865,5.417c4.07,0,7.859-1.203,11.057-3.25h6.912l4.016,4.016
				c0.203,0.203,0.479,0.317,0.766,0.317h9.75v-2.167H70.43l-4.016-4.016c-0.203-0.203-0.479-0.317-0.766-0.317h-4.551
				c1.699-1.555,3.152-3.374,4.254-5.417h4.182l4.016,4.017c0.203,0.203,0.479,0.317,0.766,0.317h5.416v-2.167h-4.967L70.746,49.8
				c-0.201-0.204-0.479-0.317-0.766-0.317h-3.633c0.809-2.029,1.293-4.216,1.412-6.5h5.471v-2.167H67.76
				c-0.078-1.493-0.312-2.941-0.693-4.333h5.082c0.287,0,0.562-0.114,0.766-0.317l4.016-4.017h2.801v-2.166h-3.25
				c-0.287,0-0.562,0.113-0.766,0.317l-4.016,4.016h-5.352c-0.785-1.972-1.854-3.798-3.176-5.417h4.643
				c0.287,0,0.562-0.113,0.766-0.316l2.934-2.934h8.217v-2.166h-8.666C70.777,23.483,70.502,23.596,70.299,23.8z M20.148,22.399
				c-0.598,0-1.084-0.486-1.084-1.083s0.486-1.083,1.084-1.083c0.596,0,1.082,0.486,1.082,1.083S20.744,22.399,20.148,22.399z
				 M20.148,59.233c-0.598,0-1.084-0.486-1.084-1.084c0-0.597,0.486-1.083,1.084-1.083c0.596,0,1.082,0.486,1.082,1.083
				C21.23,58.747,20.744,59.233,20.148,59.233z M65.648,41.899c0,10.155-8.262,18.417-18.418,18.417c-5.07,0-9.666-2.06-13-5.386
				v-0.031h-0.031c-3.326-3.333-5.385-7.93-5.385-13c0-10.154,8.262-18.416,18.416-18.416c5.07,0,9.668,2.059,13,5.385v0.031h0.031
				C63.588,32.233,65.648,36.83,65.648,41.899z"/>
			<path fill="#3F3F3F" d="M61.314,66.816c-0.287,0-0.562,0.114-0.766,0.317l-2.934,2.933H47.68l-6.184-6.183
				c-0.201-0.203-0.479-0.317-0.766-0.317h-26v2.167h25.553l4.332,4.333h-6.25c-0.449-1.258-1.641-2.167-3.051-2.167
				s-2.474,0.887-3.051,2.167c-0.474,1.109,0,2.167,0,2.167c0.449,1.258,1.641,2.166,3.051,2.166s2.602-0.908,3.051-2.166h19.699
				c0.287,0,0.562-0.114,0.766-0.317l2.934-2.933h2.352h3.064H79.73v-2.167H61.314z M35.314,72.233
				c-0.598,0-1.084-0.486-1.084-1.084c0-0.597,0.486-1.083,1.084-1.083s1.084,0.486,1.084,1.083
				C36.398,71.747,35.912,72.233,35.314,72.233z"/>
			<rect x="75.398" y="40.816" fill="#3F3F3F" width="4.332" height="2.167"/>
			<rect x="14.73" y="40.816" fill="#3F3F3F" width="2.168" height="2.167"/>
			<rect x="26.564" y="12.649" fill="#3F3F3F" width="2.166" height="2.167"/>
			<rect x="23.23" y="12.649" fill="#3F3F3F" width="2.168" height="2.167"/>
			<rect x="61.314" y="40.816" fill="#3F3F3F" width="2.166" height="2.167"/>
			<rect x="30.98" y="40.816" fill="#3F3F3F" width="2.168" height="2.167"/>
		</g>
	</g>
	
		<rect x="46.146" y="29.782" transform="matrix(-0.7071 -0.7071 0.7071 -0.7071 51.0004 104.9229)" fill="#3F3F3F" width="2.168" height="24.234"/>
	
		<rect x="46.147" y="29.782" transform="matrix(0.7071 -0.7071 0.7071 0.7071 -15.7932 45.6696)" fill="#3F3F3F" width="2.168" height="24.234"/>
	<circle fill="#CBF3F0" stroke="#3F3F3F" stroke-width="2.3" stroke-miterlimit="10" cx="47.231" cy="41.899" r="7.423"/>
</g>
</svg>
