<?xml version="1.0" encoding="utf-8"?>
<!-- Generator: Adobe Illustrator 16.0.0, SVG Export Plug-In . SVG Version: 6.00 Build 0)  -->
<svg version="1.2" baseProfile="tiny" id="Layer_1" xmlns="http://www.w3.org/2000/svg" xmlns:xlink="http://www.w3.org/1999/xlink"
	 x="0px" y="0px" width="94.46px" height="87.048px" viewBox="0 0 94.46 87.048" xml:space="preserve">
<g>
	<g>
		<g>
			<rect x="52.519" y="41.354" fill="#3F3F3F" width="6.093" height="4.061"/>
			<rect x="70.797" y="41.354" fill="#3F3F3F" width="4.062" height="4.061"/>
			<rect x="62.674" y="41.354" fill="#3F3F3F" width="4.061" height="4.061"/>
		</g>
	</g>
	<g>
		<g>
			
				<rect x="35.068" y="20.807" transform="matrix(0.7071 -0.7071 0.7071 0.7071 -19.9082 38.9814)" fill="#3F3F3F" width="4.064" height="45.43"/>
		</g>
		<g>
			
				<rect x="35.068" y="20.809" transform="matrix(0.7071 0.7071 -0.7071 0.7071 41.6426 -13.4862)" fill="#3F3F3F" width="4.064" height="45.43"/>
		</g>
		<g>
			<circle fill="#20886C" cx="37.101" cy="43.523" r="13.916"/>
			<path fill="#3F3F3F" d="M21.028,43.522c0-8.86,7.21-16.07,16.072-16.07s16.072,7.21,16.072,16.07
				c0,8.862-7.21,16.074-16.072,16.074S21.028,52.384,21.028,43.522z M48.859,43.522c0-6.482-5.274-11.757-11.759-11.757
				S25.342,37.04,25.342,43.522c0,6.484,5.274,11.761,11.759,11.761S48.859,50.006,48.859,43.522z"/>
		</g>
	</g>
</g>
</svg>
