<?xml version="1.0" encoding="utf-8"?>
<!-- Generator: Adobe Illustrator 16.0.0, SVG Export Plug-In . SVG Version: 6.00 Build 0)  -->
<svg version="1.2" baseProfile="tiny" id="Layer_1" xmlns="http://www.w3.org/2000/svg" xmlns:xlink="http://www.w3.org/1999/xlink" x="0px" y="0px" width="94.46px" height="87.048px" viewBox="0 0 94.46 87.048" xml:space="preserve">
  <g>
    <g>
      <polygon fill="#E8EDED" points="28.813,52.993 28.813,34.055 47.229,23.531 65.647,34.055 65.647,52.993 47.229,63.519 		" />
      <path fill="#60C4C2" d="M47.229,27.274L32.064,35.94v7.583v7.585l15.165,8.666l15.167-8.666v-7.585V35.94L47.229,27.274z" />
      <circle fill="#50A08A" cx="47.229" cy="43.524" r="10.834" />
      <circle fill="#E6E7E8" cx="47.229" cy="43.524" r="7.584" />
      <g>
        <circle fill="#528D88" cx="47.229" cy="16.44" r="4.333" />
        <circle fill="#537987" cx="47.229" cy="70.607" r="4.333" />
        <circle fill="#50A08A" cx="74.313" cy="43.525" r="4.333" />
        <circle fill="#50A08A" cx="69.98" cy="20.774" r="4.333" />
        <circle fill="#275969" cx="20.147" cy="43.525" r="4.333" />
        <circle fill="#284E68" cx="24.48" cy="66.274" r="4.334" />
        <circle fill="#528D88" cx="69.98" cy="66.274" r="4.334" />
        <circle fill="#20886C" cx="24.48" cy="20.774" r="4.333" />
      </g>
      <g>
        <path fill="#3F3F3F" d="M38.563,43.523c0,4.78,3.889,8.669,8.666,8.669c4.78,0,8.668-3.889,8.668-8.669
					c0-4.778-3.888-8.666-8.668-8.666C42.452,34.857,38.563,38.745,38.563,43.523z M53.73,43.523c0,3.585-2.915,6.501-6.501,6.501
					c-3.584,0-6.499-2.916-6.499-6.501c0-3.584,2.915-6.5,6.499-6.5C50.815,37.023,53.73,39.939,53.73,43.523z" />
        <path fill="#3F3F3F" d="M74.313,38.107c-2.614,0-4.803,1.864-5.308,4.334H63.48V35.94c0-0.388-0.208-0.747-0.546-0.94
						l-3.595-2.053l7.658-7.659c0.856,0.567,1.88,0.903,2.982,0.903c2.986,0,5.416-2.431,5.416-5.418c0-2.986-2.43-5.416-5.416-5.416
						c-2.987,0-5.417,2.43-5.417,5.416c0,1.103,0.335,2.127,0.902,2.982l-8.076,8.077l-9.075-5.187v-4.898
						c2.469-0.504,4.333-2.691,4.333-5.307c0-2.987-2.431-5.418-5.418-5.418c-2.985,0-5.416,2.431-5.416,5.418
						c0,2.614,1.864,4.803,4.334,5.307v4.898l-9.076,5.187l-8.076-8.077c0.567-0.855,0.902-1.88,0.902-2.982
						c0-2.986-2.43-5.416-5.417-5.416c-2.986,0-5.416,2.43-5.416,5.416c0,2.987,2.43,5.418,5.416,5.418
						c1.103,0,2.126-0.336,2.982-0.903l7.658,7.659L31.526,35c-0.338,0.193-0.546,0.553-0.546,0.94v6.501h-5.525
						c-0.505-2.47-2.692-4.334-5.308-4.334c-2.987,0-5.417,2.43-5.417,5.417c0,2.986,2.43,5.416,5.417,5.416
						c2.615,0,4.803-1.863,5.308-4.332h5.525v6.5c0,0.387,0.208,0.748,0.546,0.939l3.595,2.055l-7.658,7.658
						c-0.856-0.568-1.88-0.902-2.982-0.902c-2.986,0-5.416,2.43-5.416,5.416s2.43,5.416,5.416,5.416c2.987,0,5.417-2.43,5.417-5.416
						c0-1.102-0.335-2.125-0.902-2.982l8.076-8.076l9.076,5.188V65.3c-2.47,0.504-4.334,2.693-4.334,5.309
						c0,2.986,2.431,5.416,5.416,5.416c2.987,0,5.418-2.43,5.418-5.416c0-2.615-1.864-4.805-4.333-5.309v-4.896l9.075-5.188
						l8.076,8.076c-0.567,0.857-0.902,1.881-0.902,2.982c0,2.986,2.43,5.416,5.417,5.416c2.986,0,5.416-2.43,5.416-5.416
						s-2.43-5.416-5.416-5.416c-1.103,0-2.126,0.334-2.982,0.902l-7.658-7.658l3.595-2.055c0.338-0.191,0.546-0.553,0.546-0.939v-6.5
						h5.525c0.505,2.469,2.691,4.332,5.308,4.332c2.987,0,5.417-2.43,5.417-5.417C79.73,40.537,77.301,38.107,74.313,38.107z
						M69.98,17.523c1.791,0,3.249,1.459,3.249,3.25c0,1.793-1.458,3.25-3.249,3.25c-1.792,0-3.25-1.457-3.25-3.25
						C66.73,18.982,68.188,17.523,69.98,17.523z M24.48,24.023c-1.791,0-3.249-1.457-3.249-3.25c0-1.791,1.458-3.249,3.249-3.249
						c1.792,0,3.25,1.458,3.25,3.249C27.73,22.566,26.272,24.023,24.48,24.023z M20.147,46.774c-1.792,0-3.25-1.459-3.25-3.25
						c0-1.792,1.458-3.25,3.25-3.25c1.791,0,3.249,1.458,3.249,3.25C23.396,45.315,21.938,46.774,20.147,46.774z M24.48,69.524
						c-1.791,0-3.249-1.457-3.249-3.25c0-1.791,1.458-3.25,3.249-3.25c1.792,0,3.25,1.459,3.25,3.25
						C27.73,68.067,26.272,69.524,24.48,69.524z M69.98,63.024c1.791,0,3.249,1.459,3.249,3.25s-1.458,3.25-3.249,3.25
						c-1.792,0-3.25-1.459-3.25-3.25S68.188,63.024,69.98,63.024z M43.98,16.441c0-1.793,1.458-3.25,3.249-3.25
						c1.793,0,3.251,1.457,3.251,3.25c0,1.791-1.458,3.249-3.251,3.249C45.438,19.69,43.98,18.232,43.98,16.441z M50.48,70.608
						c0,1.791-1.458,3.25-3.251,3.25c-1.791,0-3.249-1.459-3.249-3.25c0-1.793,1.458-3.25,3.249-3.25
						C49.022,67.358,50.48,68.815,50.48,70.608z M61.313,50.479l-14.084,8.047l-14.082-8.047V36.568l14.082-8.048l14.084,8.048V50.479
						z M74.313,46.774c-1.791,0-3.25-1.459-3.25-3.251c0-1.791,1.459-3.249,3.25-3.249c1.792,0,3.25,1.458,3.25,3.249
						C77.563,45.315,76.105,46.774,74.313,46.774z" />
      </g>
    </g>
    <g>
      <g>
        <rect x="46.145" y="31.407" transform="matrix(-0.7071 -0.7071 0.7071 -0.7071 49.8501 107.6954)" fill="#3F3F3F" width="2.168" height="24.234" />
      </g>
      <g>
        <rect x="46.146" y="31.407" transform="matrix(0.7071 -0.7071 0.7071 0.7071 -16.9426 46.1448)" fill="#3F3F3F" width="2.168" height="24.234" />
      </g>
      <g>
        <circle fill="#E8EDED" cx="47.23" cy="43.523" r="7.423" />
        <path fill="#3F3F3F" d="M47.229,52.097c-4.727,0-8.572-3.846-8.572-8.573s3.846-8.573,8.572-8.573
							c4.728,0,8.574,3.846,8.574,8.573S51.957,52.097,47.229,52.097z M47.229,37.251c-3.458,0-6.271,2.813-6.271,6.272
							c0,3.46,2.813,6.272,6.271,6.272c3.459,0,6.273-2.812,6.273-6.272C53.503,40.064,50.688,37.251,47.229,37.251z" />
      </g>
    </g>
  </g>
</svg>