<?xml version="1.0" encoding="utf-8"?>
<!-- Generator: Adobe Illustrator 16.0.0, SVG Export Plug-In . SVG Version: 6.00 Build 0)  -->
<svg version="1.2" baseProfile="tiny" id="Layer_1" xmlns="http://www.w3.org/2000/svg" xmlns:xlink="http://www.w3.org/1999/xlink" x="0px" y="0px" width="94.46px" height="87.048px" viewBox="0 0 94.46 87.048" xml:space="preserve">
  <g>
    <path fill="#29AB6A" d="M52.647,25.582c0,2.393,1.939,4.333,4.333,4.333h5.417h6.5h5.416c2.394,0,4.334-1.94,4.334-4.333v-1.084
			h-26V25.582z" />
    <path fill="#CBF3F0" d="M74.313,12.582H56.98c-2.394,0-4.333,1.94-4.333,4.333v3.25v4.333h26v-7.583
				C78.647,14.522,76.707,12.582,74.313,12.582z" />
    <polygon fill="#284E68" points="60.23,35.332 65.647,35.332 71.063,35.332 68.897,29.915 62.397,29.915 	" />
    <path fill="#29AB6A" d="M15.813,65.665c0,2.394,1.94,4.333,4.334,4.333h5.416h6.5h5.417c2.394,0,4.333-1.939,4.333-4.333v-1.083
					h-26V65.665z" />
    <path fill="#CBF3F0" d="M15.813,64.582h26v-4.334v-3.25c0-2.393-1.939-4.333-4.333-4.333h-8.667h-8.666
						c-2.394,0-4.334,1.94-4.334,4.333V64.582z" />
    <polygon fill="#284E68" points="23.397,75.415 34.23,75.415 32.063,69.998 25.563,69.998 	" />
    <path fill="#24706A" d="M52.647,65.665c0,2.394,1.939,4.333,4.333,4.333h5.417h6.5h5.416c2.394,0,4.334-1.939,4.334-4.333v-1.083
							h-26V65.665z" />
    <path fill="#CBF3F0" d="M74.313,52.665h-8.666H56.98c-2.394,0-4.333,1.94-4.333,4.333v3.25v4.334h26v-7.584
								C78.647,54.605,76.707,52.665,74.313,52.665z" />
    <polygon fill="#284E68" points="60.23,75.415 71.063,75.415 68.897,69.998 62.397,69.998 	" />
    <g>
      <path fill="#3F3F3F" d="M74.313,11.498H56.98c-2.986,0-5.417,2.431-5.417,5.417v2.167H47.23v2.166h4.333v4.334
										c0,1.166,0.417,2.273,1.009,3.127s1.655,1.512,1.655,1.512c0.81,0.482,1.744,0.777,2.753,0.777h3.816l-1.3,3.25H56.98v2.167h3.25
										h4.333v2.167h2.167v-2.167h4.333h3.25v-2.167h-2.517l-1.3-3.25h3.816c2.987,0,5.417-2.43,5.417-5.416v-8.667
										C79.73,13.929,77.301,11.498,74.313,11.498z M56.98,13.665h17.333c1.792,0,3.25,1.458,3.25,3.25v6.5H53.73v-6.5
										C53.73,15.123,55.188,13.665,56.98,13.665z M69.464,34.248H61.83l1.301-3.25h5.033L69.464,34.248z M74.313,28.832h-5.416h-6.5
										H56.98c-1.792,0-3.25-1.458-3.25-3.25h23.833C77.563,27.374,76.105,28.832,74.313,28.832z" />
      <path fill="#3F3F3F" d="M20.147,71.082h3.816l-1.3,3.25h-2.517v2.166h3.25H34.23h3.25v-2.166h-2.517l-1.3-3.25h3.816
											c2.986,0,5.417-2.43,5.417-5.417v-4.333h4.333v-2.167h-4.333v-2.167c0-1.166-0.38-2.241-1.01-3.126c0,0-0.754-0.943-1.654-1.514
											c-0.67-0.425-1.744-0.777-2.753-0.777h-7.583v-2.167H27.73v2.167h-7.583c-2.987,0-5.417,2.43-5.417,5.417v8.666
											C14.73,68.652,17.16,71.082,20.147,71.082z M32.631,74.332h-7.634l1.3-3.25h5.033L32.631,74.332z M37.48,68.915h-5.417h-6.5
											h-5.416c-1.792,0-3.25-1.458-3.25-3.25H40.73C40.73,67.457,39.272,68.915,37.48,68.915z M20.147,53.748H37.48
											c1.792,0,3.25,1.459,3.25,3.25v6.5H16.897v-6.5C16.897,55.207,18.355,53.748,20.147,53.748z" />
      <path fill="#3F3F3F" d="M74.313,51.582H66.73v-2.167h-2.167v2.167H56.98c-1.009,0-1.943,0.296-2.753,0.777
												c0,0-0.934,0.44-1.654,1.514s-1.01,1.959-1.01,3.125v2.167h-2.166v2.167h2.166v4.333c0,2.987,2.431,5.417,5.417,5.417h3.816
												l-1.3,3.25H56.98v2.166h3.25h10.833h3.25v-2.166h-2.517l-1.3-3.25h3.816c2.987,0,5.417-2.43,5.417-5.417v-8.667
												C79.73,54.012,77.301,51.582,74.313,51.582z M74.313,53.748c1.792,0,3.25,1.459,3.25,3.25v6.5H53.73v-6.5
												c0-1.791,1.458-3.25,3.25-3.25H74.313z M69.464,74.332H61.83l1.301-3.25h5.033L69.464,74.332z M74.313,68.915h-5.416h-6.5H56.98
												c-1.792,0-3.25-1.458-3.25-3.25h23.833C77.563,67.457,76.105,68.915,74.313,68.915z" />
      <rect x="27.73" y="45.082" fill="#3F3F3F" width="2.167" height="2.166" />
      <rect x="27.73" y="40.748" fill="#3F3F3F" width="2.167" height="2.167" />
      <rect x="27.73" y="36.26" fill="#3F3F3F" width="2.167" height="2.166" />
      <rect x="27.73" y="31.926" fill="#3F3F3F" width="2.167" height="2.167" />
      <rect x="27.73" y="27.625" fill="#3F3F3F" width="2.167" height="2.167" />
      <rect x="64.563" y="45.082" fill="#3F3F3F" width="2.167" height="2.166" />
      <rect x="64.563" y="40.748" fill="#3F3F3F" width="2.167" height="2.167" />
    </g>
    <g>
      <rect x="28.002" y="7.768" transform="matrix(-0.7071 -0.7071 0.7071 -0.7071 35.5921 54.5123)" fill="#3F3F3F" width="2.168" height="24.234" />
    </g>
    <g>
      <rect x="28.003" y="7.768" transform="matrix(0.7071 -0.7071 0.7071 0.7071 -5.5413 26.3917)" fill="#3F3F3F" width="2.168" height="24.234" />
    </g>
    <g>
      <circle fill="#CBF3F0" cx="29.087" cy="19.885" r="7.423" />
      <path fill="#3F3F3F" d="M29.086,28.458c-4.727,0-8.572-3.846-8.572-8.573s3.846-8.573,8.572-8.573
													c4.728,0,8.574,3.846,8.574,8.573S33.813,28.458,29.086,28.458z M29.086,13.612c-3.458,0-6.271,2.813-6.271,6.272
													s2.813,6.272,6.271,6.272c3.459,0,6.273-2.813,6.273-6.272S32.545,13.612,29.086,13.612z" />
    </g>
    <rect x="37.022" y="19.096" fill="#3F3F3F" width="3.532" height="2.168" />
    <rect x="42.877" y="19.096" fill="#3F3F3F" width="2.166" height="2.168" />
  </g>
</svg>